<svg version="1.1" viewBox="0.0 0.0 853.7454068241469 275.9790026246719" fill="none" stroke="none" stroke-linecap="square" stroke-miterlimit="10" xmlns:xlink="http://www.w3.org/1999/xlink" xmlns="http://www.w3.org/2000/svg"><clipPath id="p.0"><path d="m0 0l853.7454 0l0 275.979l-853.7454 0l0 -275.979z" clip-rule="nonzero"/></clipPath><g clip-path="url(#p.0)"><path fill="#000000" fill-opacity="0.0" d="m0 0l853.7454 0l0 275.979l-853.7454 0z" fill-rule="evenodd"/><path fill="#f3f3f3" d="m0 0l853.7323 0l0 275.9685l-853.7323 0z" fill-rule="evenodd"/><path fill="#980000" d="m63.10227 105.873955c7.1073647 0 12.123005 0.4648285 15.046917 1.3944855c2.923912 0.9146576 5.1730804 2.6240234 6.7474976 5.1280975c1.5744171 2.4890747 2.361618 5.3755035 2.361618 8.6592865c0 3.4637146 -0.8471832 6.3426437 -2.5415497 8.636787c-1.6793823 2.294159 -4.183449 3.9360504 -7.5122147 4.9256744c-2.5190659 0.76472473 -6.680023 1.1470795 -12.482872 1.1470795l-21.38956 0l0 -29.89141zm3.1038475 41.564583c6.297661 0 11.11837 0.5547943 14.462135 1.6643677c3.3587494 1.0946045 5.9827805 3.0063934 7.872078 5.735382c1.8892975 2.7139893 2.8339462 5.9152985 2.8339462 9.603928c0 3.1488342 -0.6522598 5.930298 -1.9567719 8.344406c-1.3045197 2.399109 -2.968895 4.2284393 -4.993149 5.487961c-2.0242462 1.2595367 -4.543312 2.1592102 -7.5571976 2.6990051c-1.7093658 0.31488037 -4.678261 0.47232056 -8.9066925 0.47232056l-24.62836 0l0 -34.00737zm-35.964153 -53.237747l0 98.91829l37.718502 0c6.297661 0 11.61319 -0.54730225 15.946587 -1.6418915c4.348381 -1.1095886 7.962044 -2.743988 10.840973 -4.903183c2.8789291 -2.159195 5.2930374 -5.2255554 7.2423096 -9.199081c1.9642792 -3.9885254 2.9464111 -8.299423 2.9464111 -12.932709c0 -5.7578583 -1.6119003 -10.751007 -4.8357086 -14.979431c-3.208809 -4.2284393 -7.8046036 -7.219818 -13.787384 -8.974167c4.6332855 -2.294159 8.097 -5.3080444 10.391144 -9.0416565c2.2941513 -3.733612 3.4412231 -7.71463 3.4412231 -11.943062c0 -4.543312 -1.2970123 -8.891701 -3.8910522 -13.045158c-2.5790482 -4.168457 -6.15522 -7.2498093 -10.728523 -9.244072c-4.558304 -2.0092545 -10.616058 -3.0138779 -18.173256 -3.0138779z" fill-rule="evenodd"/><path fill="#980000" d="m121.13074 121.46067l0 44.39852c0 5.1730804 0.247406 8.951675 0.742218 11.3358c0.7197342 3.5536804 1.9642715 6.5600586 3.7336197 9.01915c1.7843323 2.4440918 4.505821 4.4758453 8.164467 6.09523c3.673645 1.6194 7.6246643 2.4291077 11.853104 2.4291077c9.581436 0 17.161133 -4.0484924 22.73906 -12.145493l0 10.526093l10.863464 0l0 -71.65841l-12.145493 0l0 38.393257c0 6.1177216 -0.6672516 10.788483 -2.0017548 14.012299c-1.3195038 3.2088013 -3.5761719 5.750366 -6.769989 7.6246643c-3.1938171 1.859314 -6.612549 2.788971 -10.256195 2.788971c-3.6436462 0 -6.7025146 -0.9071655 -9.17659 -2.7214966c-2.4740753 -1.8293152 -4.0934753 -4.3408813 -4.8582 -7.5346985c-0.494812 -2.2041779 -0.742218 -6.4776 -0.742218 -12.820251l0 -39.742744z" fill-rule="evenodd"/><path fill="#980000" d="m225.5145 129.89503c5.487961 0 10.173737 2.2266846 14.0572815 6.680023c3.8985596 4.453354 5.8478394 11.065903 5.8478394 19.837646c0 9.17659 -1.8892975 15.91658 -5.6679077 20.219986c-3.778595 4.2884064 -8.456863 6.432617 -14.03479 6.432617c-5.6229095 0 -10.301178 -2.159195 -14.03479 -6.4776c-3.733612 -4.31839 -5.600418 -11.178345 -5.600418 -20.579865c0 -8.636795 1.8892975 -15.144363 5.6678925 -19.52275c3.778595 -4.3933716 8.366898 -6.5900574 13.764893 -6.5900574zm-0.87716675 -10.053764c-6.3426514 0 -11.868103 1.5744171 -16.576355 4.7232513c-4.6932526 3.1488266 -8.276932 7.61718 -10.751007 13.405022c-2.4740906 5.7728577 -3.7111206 12.078018 -3.7111206 18.915482c0 9.941315 2.6989899 18.465652 8.096985 25.573013c5.397995 7.107361 13.022675 10.661041 22.874023 10.661041c7.917053 0 14.529602 -3.1263428 19.837631 -9.379028l0 0c0.04498291 7.9170685 -0.247406 13.11264 -0.87716675 15.586731c-1.0796051 4.0484924 -3.1488342 7.1973267 -6.2077026 9.446487c-3.0588684 2.2491608 -7.3997498 3.3737488 -13.022675 3.3737488c-5.2180634 0 -9.33403 -1.124588 -12.347916 -3.3737488c-2.2491608 -1.6643829 -3.6211548 -4.318405 -4.115967 -7.9620514l-11.808121 -1.7543488l0 0c-0.17993164 7.737137 2.361618 13.524994 7.6246643 17.363556c5.2630615 3.8535767 12.167984 5.780365 20.714813 5.780365c7.197342 0 13.255096 -1.3495026 18.173264 -4.0485077c4.9331665 -2.6989899 8.53183 -6.380127 10.79599 -11.043396c2.2791595 -4.6482697 3.4187317 -12.550339 3.4187317 -23.706207l0 -61.94201l-11.200836 0l0 8.636803c-5.487976 -6.837471 -12.460388 -10.256203 -20.917236 -10.256203z" fill-rule="evenodd"/><path stroke="#ff0000" stroke-width="1.0" stroke-linejoin="round" stroke-linecap="butt" d="m63.10227 105.873955c7.1073647 0 12.123005 0.4648285 15.046917 1.3944855c2.923912 0.9146576 5.1730804 2.6240234 6.7474976 5.1280975c1.5744171 2.4890747 2.361618 5.3755035 2.361618 8.6592865c0 3.4637146 -0.8471832 6.3426437 -2.5415497 8.636787c-1.6793823 2.294159 -4.183449 3.9360504 -7.5122147 4.9256744c-2.5190659 0.76472473 -6.680023 1.1470795 -12.482872 1.1470795l-21.38956 0l0 -29.89141zm3.1038475 41.564583c6.297661 0 11.11837 0.5547943 14.462135 1.6643677c3.3587494 1.0946045 5.9827805 3.0063934 7.872078 5.735382c1.8892975 2.7139893 2.8339462 5.9152985 2.8339462 9.603928c0 3.1488342 -0.6522598 5.930298 -1.9567719 8.344406c-1.3045197 2.399109 -2.968895 4.2284393 -4.993149 5.487961c-2.0242462 1.2595367 -4.543312 2.1592102 -7.5571976 2.6990051c-1.7093658 0.31488037 -4.678261 0.47232056 -8.9066925 0.47232056l-24.62836 0l0 -34.00737zm-35.964153 -53.237747l0 98.91829l37.718502 0c6.297661 0 11.61319 -0.54730225 15.946587 -1.6418915c4.348381 -1.1095886 7.962044 -2.743988 10.840973 -4.903183c2.8789291 -2.159195 5.2930374 -5.2255554 7.2423096 -9.199081c1.9642792 -3.9885254 2.9464111 -8.299423 2.9464111 -12.932709c0 -5.7578583 -1.6119003 -10.751007 -4.8357086 -14.979431c-3.208809 -4.2284393 -7.8046036 -7.219818 -13.787384 -8.974167c4.6332855 -2.294159 8.097 -5.3080444 10.391144 -9.0416565c2.2941513 -3.733612 3.4412231 -7.71463 3.4412231 -11.943062c0 -4.543312 -1.2970123 -8.891701 -3.8910522 -13.045158c-2.5790482 -4.168457 -6.15522 -7.2498093 -10.728523 -9.244072c-4.558304 -2.0092545 -10.616058 -3.0138779 -18.173256 -3.0138779z" fill-rule="evenodd"/><path stroke="#ff0000" stroke-width="1.0" stroke-linejoin="round" stroke-linecap="butt" d="m121.13074 121.46067l0 44.39852c0 5.1730804 0.247406 8.951675 0.742218 11.3358c0.7197342 3.5536804 1.9642715 6.5600586 3.7336197 9.01915c1.7843323 2.4440918 4.505821 4.4758453 8.164467 6.09523c3.673645 1.6194 7.6246643 2.4291077 11.853104 2.4291077c9.581436 0 17.161133 -4.0484924 22.73906 -12.145493l0 10.526093l10.863464 0l0 -71.65841l-12.145493 0l0 38.393257c0 6.1177216 -0.6672516 10.788483 -2.0017548 14.012299c-1.3195038 3.2088013 -3.5761719 5.750366 -6.769989 7.6246643c-3.1938171 1.859314 -6.612549 2.788971 -10.256195 2.788971c-3.6436462 0 -6.7025146 -0.9071655 -9.17659 -2.7214966c-2.4740753 -1.8293152 -4.0934753 -4.3408813 -4.8582 -7.5346985c-0.494812 -2.2041779 -0.742218 -6.4776 -0.742218 -12.820251l0 -39.742744z" fill-rule="evenodd"/><path stroke="#ff0000" stroke-width="1.0" stroke-linejoin="round" stroke-linecap="butt" d="m225.5145 129.89503c5.487961 0 10.173737 2.2266846 14.0572815 6.680023c3.8985596 4.453354 5.8478394 11.065903 5.8478394 19.837646c0 9.17659 -1.8892975 15.91658 -5.6679077 20.219986c-3.778595 4.2884064 -8.456863 6.432617 -14.03479 6.432617c-5.6229095 0 -10.301178 -2.159195 -14.03479 -6.4776c-3.733612 -4.31839 -5.600418 -11.178345 -5.600418 -20.579865c0 -8.636795 1.8892975 -15.144363 5.6678925 -19.52275c3.778595 -4.3933716 8.366898 -6.5900574 13.764893 -6.5900574zm-0.87716675 -10.053764c-6.3426514 0 -11.868103 1.5744171 -16.576355 4.7232513c-4.6932526 3.1488266 -8.276932 7.61718 -10.751007 13.405022c-2.4740906 5.7728577 -3.7111206 12.078018 -3.7111206 18.915482c0 9.941315 2.6989899 18.465652 8.096985 25.573013c5.397995 7.107361 13.022675 10.661041 22.874023 10.661041c7.917053 0 14.529602 -3.1263428 19.837631 -9.379028l0 0c0.04498291 7.9170685 -0.247406 13.11264 -0.87716675 15.586731c-1.0796051 4.0484924 -3.1488342 7.1973267 -6.2077026 9.446487c-3.0588684 2.2491608 -7.3997498 3.3737488 -13.022675 3.3737488c-5.2180634 0 -9.33403 -1.124588 -12.347916 -3.3737488c-2.2491608 -1.6643829 -3.6211548 -4.318405 -4.115967 -7.9620514l-11.808121 -1.7543488l0 0c-0.17993164 7.737137 2.361618 13.524994 7.6246643 17.363556c5.2630615 3.8535767 12.167984 5.780365 20.714813 5.780365c7.197342 0 13.255096 -1.3495026 18.173264 -4.0485077c4.9331665 -2.6989899 8.53183 -6.380127 10.79599 -11.043396c2.2791595 -4.6482697 3.4187317 -12.550339 3.4187317 -23.706207l0 -61.94201l-11.200836 0l0 8.636803c-5.487976 -6.837471 -12.460388 -10.256203 -20.917236 -10.256203z" fill-rule="evenodd"/><path fill="#e69138" d="m323.4606 130.93219c5.8764343 0 10.023407 0.3646698 12.440918 1.0939941c2.4175415 0.7175598 4.2771606 2.0585785 5.578888 4.023056c1.3017578 1.952713 1.9526367 4.217148 1.9526367 6.7933197c0 2.717331 -0.70047 4.975891 -2.1013794 6.7756653c-1.3885498 1.7997894 -3.4589233 3.0878754 -6.2111816 3.8642578c-2.0827942 0.5999298 -5.523102 0.8998871 -10.320953 0.8998871l-17.685059 0l0 -23.45018zm2.5662842 32.607925c5.20697 0 9.19278 0.43525696 11.957428 1.3057404c2.7770386 0.8587189 4.9466248 2.3585358 6.5086975 4.499466c1.5621033 2.1291504 2.3431396 4.640625 2.3431396 7.5344086c0 2.4702911 -0.5392761 4.6523895 -1.6178589 6.54628c-1.0786133 1.8821411 -2.454712 3.3172607 -4.1283875 4.305374c-1.6736755 0.98812866 -3.7564697 1.693924 -6.248352 2.1174011c-1.4133301 0.2470398 -3.868042 0.37054443 -7.3641357 0.37054443l-20.362946 0l0 -26.679214zm-29.735474 -41.765663l0 77.60262l31.186005 0c5.20697 0 9.601868 -0.42936707 13.184753 -1.2880859c3.5953064 -0.8704834 6.5830994 -2.1526794 8.96344 -3.8466034c2.38031 -1.6939087 4.3763123 -4.099518 5.9880066 -7.216797c1.624054 -3.1290436 2.4360962 -6.5110016 2.4360962 -10.145859c0 -4.5171204 -1.3327332 -8.434311 -3.9981995 -11.751556c-2.6530762 -3.3172607 -6.4529114 -5.6640472 -11.399536 -7.040344c3.830841 -1.7997894 6.6946716 -4.164215 8.591492 -7.093292c1.8968201 -2.929062 2.8452454 -6.052231 2.8452454 -9.369476c0 -3.5642853 -1.0723877 -6.975647 -3.217163 -10.2341c-2.1323853 -3.2702026 -5.0891724 -5.687561 -8.870422 -7.252083c-3.7688599 -1.5762863 -8.777466 -2.3644257 -15.025818 -2.3644257z" fill-rule="evenodd"/><path fill="#e69138" d="m371.43906 143.16017l0 34.831192c0 4.0583496 0.20455933 7.022705 0.613678 8.893066c0.5950928 2.7879028 1.6240845 5.146454 3.086975 7.075638c1.4753113 1.9174194 3.7254639 3.5113525 6.750458 4.7817993c3.0374146 1.2704315 6.304138 1.9056549 9.800262 1.9056549c7.9220276 0 14.188965 -3.1761017 18.800842 -9.52829l0 8.257843l8.982025 0l0 -56.216904l-10.041992 0l0 30.11998c0 4.7994385 -0.5516968 8.463699 -1.6550903 10.992828c-1.0909729 2.5173492 -2.9568176 4.5112305 -5.597473 5.9816437c-2.640686 1.4586487 -5.4673157 2.187973 -8.479919 2.187973c-3.0126038 0 -5.541687 -0.7116852 -7.5872803 -2.1350403c-2.0455933 -1.4351196 -3.3845215 -3.4054718 -4.016815 -5.911072c-0.40911865 -1.7292023 -0.613678 -5.0817566 -0.613678 -10.057632l0 -31.17868z" fill-rule="evenodd"/><path fill="#e69138" d="m457.74448 149.77704c4.5374756 0 8.411713 1.7468567 11.622681 5.240555c3.2233582 3.4937134 4.835022 8.681335 4.835022 15.562881c0 7.1991425 -1.5620728 12.486755 -4.686249 15.862839c-3.124176 3.3643036 -6.992218 5.046463 -11.604095 5.046463c-4.6490784 0 -8.51709 -1.693924 -11.604095 -5.0817566c-3.086975 -3.3878326 -4.6304626 -8.769562 -4.6304626 -16.145157c0 -6.7756805 1.5620728 -11.880951 4.686249 -15.315842c3.124176 -3.4466553 6.9178467 -5.169983 11.380951 -5.169983zm-0.72525024 -7.887314c-5.244171 0 -9.812653 1.2351532 -13.705475 3.7054443c-3.8804321 2.4703064 -6.843445 5.975769 -8.889038 10.516418c-2.0455933 4.528885 -3.06839 9.475357 -3.06839 14.839432c0 7.7990723 2.2315674 14.4865265 6.6946716 20.062332c4.4631042 5.575821 10.767242 8.363724 18.912445 8.363724c6.545868 0 12.013184 -2.452652 16.401917 -7.357956l0 0c0.037200928 6.211029 -0.20455933 10.287033 -0.72525024 12.227982c-0.89263916 3.1760864 -2.603485 5.646393 -5.1325684 7.4108887c-2.5291138 1.7644958 -6.1181946 2.6467438 -10.767273 2.6467438c-4.314331 0 -7.7174683 -0.8822479 -10.209351 -2.6467438c-1.8596497 -1.3057251 -2.9940186 -3.3878326 -3.4031372 -6.2463226l-9.763062 -1.3763123l0 0c-0.1487732 6.06987 1.9526062 10.610519 6.304138 13.621918c4.3515625 3.023178 10.060608 4.534775 17.127197 4.534775c5.950836 0 10.959442 -1.0587006 15.025818 -3.1761017c4.0787964 -2.1174011 7.054199 -5.005295 8.9262085 -8.663681c1.8844299 -3.646637 2.8266602 -9.8459015 2.8266602 -18.597824l0 -48.59427l-9.260956 0l0 6.7756653c-4.537506 -5.3640747 -10.302368 -8.046112 -17.294556 -8.046112z" fill-rule="evenodd"/><path stroke="#ff9900" stroke-width="1.0" stroke-linejoin="round" stroke-linecap="butt" d="m323.4606 130.93219c5.8764343 0 10.023407 0.3646698 12.440918 1.0939941c2.4175415 0.7175598 4.2771606 2.0585785 5.578888 4.023056c1.3017578 1.952713 1.9526367 4.217148 1.9526367 6.7933197c0 2.717331 -0.70047 4.975891 -2.1013794 6.7756653c-1.3885498 1.7997894 -3.4589233 3.0878754 -6.2111816 3.8642578c-2.0827942 0.5999298 -5.523102 0.8998871 -10.320953 0.8998871l-17.685059 0l0 -23.45018zm2.5662842 32.607925c5.20697 0 9.19278 0.43525696 11.957428 1.3057404c2.7770386 0.8587189 4.9466248 2.3585358 6.5086975 4.499466c1.5621033 2.1291504 2.3431396 4.640625 2.3431396 7.5344086c0 2.4702911 -0.5392761 4.6523895 -1.6178589 6.54628c-1.0786133 1.8821411 -2.454712 3.3172607 -4.1283875 4.305374c-1.6736755 0.98812866 -3.7564697 1.693924 -6.248352 2.1174011c-1.4133301 0.2470398 -3.868042 0.37054443 -7.3641357 0.37054443l-20.362946 0l0 -26.679214zm-29.735474 -41.765663l0 77.60262l31.186005 0c5.20697 0 9.601868 -0.42936707 13.184753 -1.2880859c3.5953064 -0.8704834 6.5830994 -2.1526794 8.96344 -3.8466034c2.38031 -1.6939087 4.3763123 -4.099518 5.9880066 -7.216797c1.624054 -3.1290436 2.4360962 -6.5110016 2.4360962 -10.145859c0 -4.5171204 -1.3327332 -8.434311 -3.9981995 -11.751556c-2.6530762 -3.3172607 -6.4529114 -5.6640472 -11.399536 -7.040344c3.830841 -1.7997894 6.6946716 -4.164215 8.591492 -7.093292c1.8968201 -2.929062 2.8452454 -6.052231 2.8452454 -9.369476c0 -3.5642853 -1.0723877 -6.975647 -3.217163 -10.2341c-2.1323853 -3.2702026 -5.0891724 -5.687561 -8.870422 -7.252083c-3.7688599 -1.5762863 -8.777466 -2.3644257 -15.025818 -2.3644257z" fill-rule="evenodd"/><path stroke="#ff9900" stroke-width="1.0" stroke-linejoin="round" stroke-linecap="butt" d="m371.43906 143.16017l0 34.831192c0 4.0583496 0.20455933 7.022705 0.613678 8.893066c0.5950928 2.7879028 1.6240845 5.146454 3.086975 7.075638c1.4753113 1.9174194 3.7254639 3.5113525 6.750458 4.7817993c3.0374146 1.2704315 6.304138 1.9056549 9.800262 1.9056549c7.9220276 0 14.188965 -3.1761017 18.800842 -9.52829l0 8.257843l8.982025 0l0 -56.216904l-10.041992 0l0 30.11998c0 4.7994385 -0.5516968 8.463699 -1.6550903 10.992828c-1.0909729 2.5173492 -2.9568176 4.5112305 -5.597473 5.9816437c-2.640686 1.4586487 -5.4673157 2.187973 -8.479919 2.187973c-3.0126038 0 -5.541687 -0.7116852 -7.5872803 -2.1350403c-2.0455933 -1.4351196 -3.3845215 -3.4054718 -4.016815 -5.911072c-0.40911865 -1.7292023 -0.613678 -5.0817566 -0.613678 -10.057632l0 -31.17868z" fill-rule="evenodd"/><path stroke="#ff9900" stroke-width="1.0" stroke-linejoin="round" stroke-linecap="butt" d="m457.74448 149.77704c4.5374756 0 8.411713 1.7468567 11.622681 5.240555c3.2233582 3.4937134 4.835022 8.681335 4.835022 15.562881c0 7.1991425 -1.5620728 12.486755 -4.686249 15.862839c-3.124176 3.3643036 -6.992218 5.046463 -11.604095 5.046463c-4.6490784 0 -8.51709 -1.693924 -11.604095 -5.0817566c-3.086975 -3.3878326 -4.6304626 -8.769562 -4.6304626 -16.145157c0 -6.7756805 1.5620728 -11.880951 4.686249 -15.315842c3.124176 -3.4466553 6.9178467 -5.169983 11.380951 -5.169983zm-0.72525024 -7.887314c-5.244171 0 -9.812653 1.2351532 -13.705475 3.7054443c-3.8804321 2.4703064 -6.843445 5.975769 -8.889038 10.516418c-2.0455933 4.528885 -3.06839 9.475357 -3.06839 14.839432c0 7.7990723 2.2315674 14.4865265 6.6946716 20.062332c4.4631042 5.575821 10.767242 8.363724 18.912445 8.363724c6.545868 0 12.013184 -2.452652 16.401917 -7.357956l0 0c0.037200928 6.211029 -0.20455933 10.287033 -0.72525024 12.227982c-0.89263916 3.1760864 -2.603485 5.646393 -5.1325684 7.4108887c-2.5291138 1.7644958 -6.1181946 2.6467438 -10.767273 2.6467438c-4.314331 0 -7.7174683 -0.8822479 -10.209351 -2.6467438c-1.8596497 -1.3057251 -2.9940186 -3.3878326 -3.4031372 -6.2463226l-9.763062 -1.3763123l0 0c-0.1487732 6.06987 1.9526062 10.610519 6.304138 13.621918c4.3515625 3.023178 10.060608 4.534775 17.127197 4.534775c5.950836 0 10.959442 -1.0587006 15.025818 -3.1761017c4.0787964 -2.1174011 7.054199 -5.005295 8.9262085 -8.663681c1.8844299 -3.646637 2.8266602 -9.8459015 2.8266602 -18.597824l0 -48.59427l-9.260956 0l0 6.7756653c-4.537506 -5.3640747 -10.302368 -8.046112 -17.294556 -8.046112z" fill-rule="evenodd"/><path fill="#434343" d="m543.67365 150.77963c4.446533 0 7.5844116 0.2853241 9.413696 0.85598755c1.8292847 0.56144714 3.2363892 1.610733 4.2213745 3.1478271c0.9850464 1.5278931 1.4775391 3.2996979 1.4775391 5.3154144c0 2.1261597 -0.5300293 3.8933716 -1.5900879 5.301605c-1.0506592 1.4082489 -2.6172485 2.4161072 -4.699829 3.0235748c-1.5759888 0.4694214 -4.179138 0.7041168 -7.8095703 0.7041168l-13.381775 0l0 -18.348526zm1.9418335 25.513977c3.9400024 0 6.9559326 0.3405609 9.047852 1.0216675c2.1013184 0.6719055 3.742981 1.8454437 4.924988 3.5205994c1.1819458 1.6659546 1.7729492 3.6310577 1.7729492 5.895279c0 1.9328766 -0.40808105 3.6402588 -1.2241821 5.1221313c-0.8161621 1.4726562 -1.8574219 2.595581 -3.1238403 3.3687286c-1.2664185 0.7731476 -2.8424072 1.3253937 -4.7279663 1.6567535c-1.069397 0.19328308 -2.9268188 0.28993225 -5.5722046 0.28993225l-15.408081 0l0 -20.875092zm-22.5 -32.67943l0 60.71997l23.597595 0c3.9399414 0 7.265442 -0.33595276 9.9765625 -1.0078583c2.720398 -0.68110657 4.981201 -1.684372 6.7823486 -3.0097656c1.8010864 -1.3254089 3.3114624 -3.2076569 4.530945 -5.646759c1.2288818 -2.4483185 1.8433228 -5.094528 1.8433228 -7.938614c0 -3.5344086 -1.0084229 -6.5993958 -3.0253296 -9.194977c-2.0075073 -2.595581 -4.8827515 -4.4318085 -8.625671 -5.5086975c2.8986816 -1.4082489 5.065674 -3.2582855 6.5009155 -5.550125c1.4353027 -2.2918396 2.152893 -4.73555 2.152893 -7.331131c0 -2.7888641 -0.81140137 -5.458069 -2.4343262 -8.007629c-1.6134644 -2.5587616 -3.85083 -4.450226 -6.711975 -5.6743774c-2.8518066 -1.2333679 -6.6416626 -1.8500366 -11.369629 -1.8500366z" fill-rule="evenodd"/><path fill="#434343" d="m579.9776 160.34738l0 27.25357c0 3.1754456 0.15478516 5.4948883 0.46435547 6.958359c0.45031738 2.1813965 1.2288818 4.026825 2.3358154 5.536316c1.116333 1.5002747 2.8189697 2.7474518 5.10791 3.7415009c2.2983398 0.9940491 4.7701416 1.4910736 7.4155884 1.4910736c5.994385 0 10.736389 -2.4851227 14.226074 -7.4553833l0 6.461334l6.7964478 0l0 -43.98677l-7.5985107 0l0 23.567291c0 3.75531 -0.41748047 6.622406 -1.2523804 8.601318c-0.8255005 1.9696808 -2.2373047 3.5298004 -4.2354126 4.680313c-1.998169 1.1413269 -4.136963 1.7119904 -6.416504 1.7119904c-2.279602 0 -4.1932983 -0.5568695 -5.741089 -1.6705627c-1.5478516 -1.1229095 -2.5610352 -2.6646118 -3.0394287 -4.625107c-0.3095703 -1.3530121 -0.46435547 -3.9761963 -0.46435547 -7.869568l0 -24.395676z" fill-rule="evenodd"/><path fill="#434343" d="m645.28253 165.52472c3.4334106 0 6.364929 1.3668213 8.794556 4.100464c2.4390259 2.7336426 3.6585083 6.792694 3.6585083 12.177139c0 5.63295 -1.1819458 9.770233 -3.5459595 12.411835c-2.3639526 2.6323853 -5.2907715 3.9485931 -8.780457 3.9485931c-3.5178223 0 -6.444702 -1.3254089 -8.780518 -3.9762115c-2.3358154 -2.6508026 -3.5037231 -6.8617096 -3.5037231 -12.632736c0 -5.301605 1.1819458 -9.296219 3.5459595 -11.983841c2.3639526 -2.6968231 5.234497 -4.0452423 8.611633 -4.0452423zm-0.5487671 -6.171402c-3.9681396 0 -7.424988 0.9664459 -10.370605 2.8993225c-2.9361572 1.9328766 -5.1782227 4.67572 -6.726074 8.228531c-1.5478516 3.5436096 -2.3217163 7.413971 -2.3217163 11.611084c0 6.102371 1.6885376 11.334946 5.065613 15.697723c3.3771362 4.3627777 8.147339 6.544174 14.310547 6.544174c4.953064 0 9.090027 -1.9190674 12.410889 -5.7572174l0 0c0.028137207 4.8598022 -0.15478516 8.049057 -0.5487671 9.567749c-0.67541504 2.4851227 -1.9700317 4.4179993 -3.883728 5.7986298c-1.9136963 1.3806305 -4.6294556 2.070938 -8.147278 2.070938c-3.2645264 0 -5.8395386 -0.6903076 -7.7250977 -2.070938c-1.4071655 -1.0216675 -2.265503 -2.6508026 -2.5750732 -4.8874207l-7.387451 -1.076889l0 0c-0.11254883 4.749359 1.477478 8.30217 4.7702026 10.658447c3.2926636 2.3654785 7.612549 3.5482025 12.959656 3.5482025c4.5028076 0 8.292664 -0.82836914 11.369629 -2.4851227c3.0863037 -1.6567535 5.3377075 -3.9163818 6.7542114 -6.778885c1.4259033 -2.8532867 2.138855 -7.703888 2.138855 -14.551804l0 -38.02246l-7.0075073 0l0 5.301605c-3.4334106 -4.197113 -7.795532 -6.2956696 -13.086304 -6.2956696z" fill-rule="evenodd"/><path stroke="#000000" stroke-width="1.0" stroke-linejoin="round" stroke-linecap="butt" d="m543.67365 150.77963c4.446533 0 7.5844116 0.2853241 9.413696 0.85598755c1.8292847 0.56144714 3.2363892 1.610733 4.2213745 3.1478271c0.9850464 1.5278931 1.4775391 3.2996979 1.4775391 5.3154144c0 2.1261597 -0.5300293 3.8933716 -1.5900879 5.301605c-1.0506592 1.4082489 -2.6172485 2.4161072 -4.699829 3.0235748c-1.5759888 0.4694214 -4.179138 0.7041168 -7.8095703 0.7041168l-13.381775 0l0 -18.348526zm1.9418335 25.513977c3.9400024 0 6.9559326 0.3405609 9.047852 1.0216675c2.1013184 0.6719055 3.742981 1.8454437 4.924988 3.5205994c1.1819458 1.6659546 1.7729492 3.6310577 1.7729492 5.895279c0 1.9328766 -0.40808105 3.6402588 -1.2241821 5.1221313c-0.8161621 1.4726562 -1.8574219 2.595581 -3.1238403 3.3687286c-1.2664185 0.7731476 -2.8424072 1.3253937 -4.7279663 1.6567535c-1.069397 0.19328308 -2.9268188 0.28993225 -5.5722046 0.28993225l-15.408081 0l0 -20.875092zm-22.5 -32.67943l0 60.71997l23.597595 0c3.9399414 0 7.265442 -0.33595276 9.9765625 -1.0078583c2.720398 -0.68110657 4.981201 -1.684372 6.7823486 -3.0097656c1.8010864 -1.3254089 3.3114624 -3.2076569 4.530945 -5.646759c1.2288818 -2.4483185 1.8433228 -5.094528 1.8433228 -7.938614c0 -3.5344086 -1.0084229 -6.5993958 -3.0253296 -9.194977c-2.0075073 -2.595581 -4.8827515 -4.4318085 -8.625671 -5.5086975c2.8986816 -1.4082489 5.065674 -3.2582855 6.5009155 -5.550125c1.4353027 -2.2918396 2.152893 -4.73555 2.152893 -7.331131c0 -2.7888641 -0.81140137 -5.458069 -2.4343262 -8.007629c-1.6134644 -2.5587616 -3.85083 -4.450226 -6.711975 -5.6743774c-2.8518066 -1.2333679 -6.6416626 -1.8500366 -11.369629 -1.8500366z" fill-rule="evenodd"/><path stroke="#000000" stroke-width="1.0" stroke-linejoin="round" stroke-linecap="butt" d="m579.9776 160.34738l0 27.25357c0 3.1754456 0.15478516 5.4948883 0.46435547 6.958359c0.45031738 2.1813965 1.2288818 4.026825 2.3358154 5.536316c1.116333 1.5002747 2.8189697 2.7474518 5.10791 3.7415009c2.2983398 0.9940491 4.7701416 1.4910736 7.4155884 1.4910736c5.994385 0 10.736389 -2.4851227 14.226074 -7.4553833l0 6.461334l6.7964478 0l0 -43.98677l-7.5985107 0l0 23.567291c0 3.75531 -0.41748047 6.622406 -1.2523804 8.601318c-0.8255005 1.9696808 -2.2373047 3.5298004 -4.2354126 4.680313c-1.998169 1.1413269 -4.136963 1.7119904 -6.416504 1.7119904c-2.279602 0 -4.1932983 -0.5568695 -5.741089 -1.6705627c-1.5478516 -1.1229095 -2.5610352 -2.6646118 -3.0394287 -4.625107c-0.3095703 -1.3530121 -0.46435547 -3.9761963 -0.46435547 -7.869568l0 -24.395676z" fill-rule="evenodd"/><path stroke="#000000" stroke-width="1.0" stroke-linejoin="round" stroke-linecap="butt" d="m645.28253 165.52472c3.4334106 0 6.364929 1.3668213 8.794556 4.100464c2.4390259 2.7336426 3.6585083 6.792694 3.6585083 12.177139c0 5.63295 -1.1819458 9.770233 -3.5459595 12.411835c-2.3639526 2.6323853 -5.2907715 3.9485931 -8.780457 3.9485931c-3.5178223 0 -6.444702 -1.3254089 -8.780518 -3.9762115c-2.3358154 -2.6508026 -3.5037231 -6.8617096 -3.5037231 -12.632736c0 -5.301605 1.1819458 -9.296219 3.5459595 -11.983841c2.3639526 -2.6968231 5.234497 -4.0452423 8.611633 -4.0452423zm-0.5487671 -6.171402c-3.9681396 0 -7.424988 0.9664459 -10.370605 2.8993225c-2.9361572 1.9328766 -5.1782227 4.67572 -6.726074 8.228531c-1.5478516 3.5436096 -2.3217163 7.413971 -2.3217163 11.611084c0 6.102371 1.6885376 11.334946 5.065613 15.697723c3.3771362 4.3627777 8.147339 6.544174 14.310547 6.544174c4.953064 0 9.090027 -1.9190674 12.410889 -5.7572174l0 0c0.028137207 4.8598022 -0.15478516 8.049057 -0.5487671 9.567749c-0.67541504 2.4851227 -1.9700317 4.4179993 -3.883728 5.7986298c-1.9136963 1.3806305 -4.6294556 2.070938 -8.147278 2.070938c-3.2645264 0 -5.8395386 -0.6903076 -7.7250977 -2.070938c-1.4071655 -1.0216675 -2.265503 -2.6508026 -2.5750732 -4.8874207l-7.387451 -1.076889l0 0c-0.11254883 4.749359 1.477478 8.30217 4.7702026 10.658447c3.2926636 2.3654785 7.612549 3.5482025 12.959656 3.5482025c4.5028076 0 8.292664 -0.82836914 11.369629 -2.4851227c3.0863037 -1.6567535 5.3377075 -3.9163818 6.7542114 -6.778885c1.4259033 -2.8532867 2.138855 -7.703888 2.138855 -14.551804l0 -38.02246l-7.0075073 0l0 5.301605c-3.4334106 -4.197113 -7.795532 -6.2956696 -13.086304 -6.2956696z" fill-rule="evenodd"/><path fill="#b7b7b7" d="m715.09314 166.41728c4.049011 0 6.906433 0.2228241 8.572144 0.6684723c1.6657715 0.4384613 2.9471436 1.2578735 3.8440552 2.4582367c0.89697266 1.1931915 1.345398 2.5768585 1.345398 4.151001c0 1.6603851 -0.48260498 3.040451 -1.447876 4.1401978c-0.9567871 1.0997467 -2.3833008 1.8868103 -4.279724 2.361206c-1.4351196 0.3665924 -3.805603 0.549881 -7.11145 0.549881l-12.185547 0l0 -14.328995zm1.7682495 19.924744c3.5877686 0 6.3341064 0.26594543 8.239014 0.79785156c1.9135132 0.52471924 3.4083862 1.4411621 4.484741 2.7493591c1.076294 1.3009949 1.6144409 2.8356018 1.6144409 4.603821c0 1.5094452 -0.37158203 2.8427887 -1.1147461 4.000046c-0.74316406 1.1500549 -1.6913452 2.0269775 -2.8446045 2.6307526c-1.1531982 0.603775 -2.5883179 1.0350494 -4.305298 1.293808c-0.9738159 0.1509552 -2.6651611 0.22642517 -5.0740967 0.22642517l-14.030701 0l0 -16.302063zm-20.488708 -25.520493l0 47.418304l21.48816 0c3.5877686 0 6.615967 -0.26235962 9.084717 -0.78707886c2.477234 -0.53189087 4.5359497 -1.3153687 6.1760864 -2.350418c1.6400757 -1.0350647 3.0153809 -2.5049744 4.1259155 -4.4097595c1.1190186 -1.911972 1.6785278 -3.978485 1.6785278 -6.199524c0 -2.760147 -0.9182739 -5.153702 -2.7548828 -7.1806793c-1.828064 -2.0269775 -4.446228 -3.4609528 -7.8546143 -4.3019257c2.6395874 -1.0997467 4.612854 -2.54451 5.9198 -4.3342743c1.3069458 -1.7897797 1.9604492 -3.698166 1.9604492 -5.7251434c0 -2.1779175 -0.7388916 -4.26239 -2.2167358 -6.253433c-1.4692383 -1.99823 -3.5065918 -3.4753265 -6.1119995 -4.43132c-2.5968628 -0.9631653 -6.0479126 -1.4447479 -10.35321 -1.4447479z" fill-rule="evenodd"/><path fill="#b7b7b7" d="m748.1518 173.88905l0 21.283249c0 2.4798126 0.14093018 4.291153 0.42285156 5.434021c0.41003418 1.7035217 1.1190186 3.144699 2.1270142 4.3235016c1.0165405 1.1716156 2.5669556 2.145584 4.651245 2.9218597c2.0928955 0.7762909 4.34375 1.164444 6.7526855 1.164444c5.458557 0 9.776672 -1.9407196 12.954407 -5.822174l0 5.045883l6.188904 0l0 -34.350784l-6.9193115 0l0 18.40451c0 2.9326477 -0.38012695 5.1716614 -1.1403809 6.7170563c-0.751709 1.538208 -2.0372925 2.756546 -3.8568115 3.6550293c-1.819519 0.8912964 -3.7671509 1.3369446 -5.8429565 1.3369446c-2.0757446 0 -3.8183594 -0.4348755 -5.227844 -1.304596c-1.4094849 -0.8769226 -2.3320923 -2.0808868 -2.7677002 -3.611908c-0.2819214 -1.0566101 -0.42285156 -3.1051483 -0.42285156 -6.1456146l0 -19.051422z" fill-rule="evenodd"/><path fill="#b7b7b7" d="m807.6189 177.93222c3.1265259 0 5.7959595 1.0673981 8.008423 3.2021942c2.2210083 2.1347961 3.331482 5.3046417 3.331482 9.509537c0 4.3989716 -1.076355 7.6299133 -3.229004 9.692825c-2.152649 2.0557404 -4.81781 3.083603 -7.9955444 3.083603c-3.2033691 0 -5.8685913 -1.0350494 -7.9956055 -3.1051636c-2.1270142 -2.0700989 -3.1905518 -5.358551 -3.1905518 -9.865326c0 -4.140213 1.076355 -7.2597504 3.229004 -9.358597c2.152649 -2.1060486 4.7666016 -3.1590729 7.841797 -3.1590729zm-0.49969482 -4.819458c-3.6134033 0 -6.7612305 0.7547302 -9.443481 2.2641754c-2.673767 1.5094604 -4.715393 3.6514435 -6.124878 6.425949c-1.4094238 2.767334 -2.1141968 5.7898254 -2.1141968 9.06749c0 4.7655487 1.5375977 8.851852 4.612854 12.258896c3.0751953 3.4070435 7.4189453 5.110565 13.03125 5.110565c4.510315 0 8.277466 -1.4986725 11.301453 -4.496002l0 0c0.025634766 3.7951813 -0.14093018 6.285782 -0.49975586 7.4717712c-0.61499023 1.9407196 -1.7938232 3.45018 -3.536499 4.528351c-1.7426147 1.078186 -4.215576 1.6172638 -7.4189453 1.6172638c-2.9727173 0 -5.317566 -0.53907776 -7.034607 -1.6172638c-1.281311 -0.79785156 -2.0629272 -2.0700989 -2.3448486 -3.8167572l-6.727051 -0.8409729l0 0c-0.10247803 3.7089386 1.345398 6.483444 4.34375 8.323547c2.998352 1.8472748 6.932068 2.7709198 11.8012085 2.7709198c4.100281 0 7.5513306 -0.6469116 10.35321 -1.9407349c2.8104248 -1.293808 4.8605957 -3.058426 6.1504517 -5.2938538c1.2984619 -2.2282257 1.9476318 -6.0162354 1.9476318 -11.363998l0 -29.693054l-6.3810425 0l0 4.140213c-3.1265259 -3.2776642 -7.098694 -4.916504 -11.916504 -4.916504z" fill-rule="evenodd"/><path stroke="#999999" stroke-width="1.0" stroke-linejoin="round" stroke-linecap="butt" d="m715.09314 166.41728c4.049011 0 6.906433 0.2228241 8.572144 0.6684723c1.6657715 0.4384613 2.9471436 1.2578735 3.8440552 2.4582367c0.89697266 1.1931915 1.345398 2.5768585 1.345398 4.151001c0 1.6603851 -0.48260498 3.040451 -1.447876 4.1401978c-0.9567871 1.0997467 -2.3833008 1.8868103 -4.279724 2.361206c-1.4351196 0.3665924 -3.805603 0.549881 -7.11145 0.549881l-12.185547 0l0 -14.328995zm1.7682495 19.924744c3.5877686 0 6.3341064 0.26594543 8.239014 0.79785156c1.9135132 0.52471924 3.4083862 1.4411621 4.484741 2.7493591c1.076294 1.3009949 1.6144409 2.8356018 1.6144409 4.603821c0 1.5094452 -0.37158203 2.8427887 -1.1147461 4.000046c-0.74316406 1.1500549 -1.6913452 2.0269775 -2.8446045 2.6307526c-1.1531982 0.603775 -2.5883179 1.0350494 -4.305298 1.293808c-0.9738159 0.1509552 -2.6651611 0.22642517 -5.0740967 0.22642517l-14.030701 0l0 -16.302063zm-20.488708 -25.520493l0 47.418304l21.48816 0c3.5877686 0 6.615967 -0.26235962 9.084717 -0.78707886c2.477234 -0.53189087 4.5359497 -1.3153687 6.1760864 -2.350418c1.6400757 -1.0350647 3.0153809 -2.5049744 4.1259155 -4.4097595c1.1190186 -1.911972 1.6785278 -3.978485 1.6785278 -6.199524c0 -2.760147 -0.9182739 -5.153702 -2.7548828 -7.1806793c-1.828064 -2.0269775 -4.446228 -3.4609528 -7.8546143 -4.3019257c2.6395874 -1.0997467 4.612854 -2.54451 5.9198 -4.3342743c1.3069458 -1.7897797 1.9604492 -3.698166 1.9604492 -5.7251434c0 -2.1779175 -0.7388916 -4.26239 -2.2167358 -6.253433c-1.4692383 -1.99823 -3.5065918 -3.4753265 -6.1119995 -4.43132c-2.5968628 -0.9631653 -6.0479126 -1.4447479 -10.35321 -1.4447479z" fill-rule="evenodd"/><path stroke="#999999" stroke-width="1.0" stroke-linejoin="round" stroke-linecap="butt" d="m748.1518 173.88905l0 21.283249c0 2.4798126 0.14093018 4.291153 0.42285156 5.434021c0.41003418 1.7035217 1.1190186 3.144699 2.1270142 4.3235016c1.0165405 1.1716156 2.5669556 2.145584 4.651245 2.9218597c2.0928955 0.7762909 4.34375 1.164444 6.7526855 1.164444c5.458557 0 9.776672 -1.9407196 12.954407 -5.822174l0 5.045883l6.188904 0l0 -34.350784l-6.9193115 0l0 18.40451c0 2.9326477 -0.38012695 5.1716614 -1.1403809 6.7170563c-0.751709 1.538208 -2.0372925 2.756546 -3.8568115 3.6550293c-1.819519 0.8912964 -3.7671509 1.3369446 -5.8429565 1.3369446c-2.0757446 0 -3.8183594 -0.4348755 -5.227844 -1.304596c-1.4094849 -0.8769226 -2.3320923 -2.0808868 -2.7677002 -3.611908c-0.2819214 -1.0566101 -0.42285156 -3.1051483 -0.42285156 -6.1456146l0 -19.051422z" fill-rule="evenodd"/><path stroke="#999999" stroke-width="1.0" stroke-linejoin="round" stroke-linecap="butt" d="m807.6189 177.93222c3.1265259 0 5.7959595 1.0673981 8.008423 3.2021942c2.2210083 2.1347961 3.331482 5.3046417 3.331482 9.509537c0 4.3989716 -1.076355 7.6299133 -3.229004 9.692825c-2.152649 2.0557404 -4.81781 3.083603 -7.9955444 3.083603c-3.2033691 0 -5.8685913 -1.0350494 -7.9956055 -3.1051636c-2.1270142 -2.0700989 -3.1905518 -5.358551 -3.1905518 -9.865326c0 -4.140213 1.076355 -7.2597504 3.229004 -9.358597c2.152649 -2.1060486 4.7666016 -3.1590729 7.841797 -3.1590729zm-0.49969482 -4.819458c-3.6134033 0 -6.7612305 0.7547302 -9.443481 2.2641754c-2.673767 1.5094604 -4.715393 3.6514435 -6.124878 6.425949c-1.4094238 2.767334 -2.1141968 5.7898254 -2.1141968 9.06749c0 4.7655487 1.5375977 8.851852 4.612854 12.258896c3.0751953 3.4070435 7.4189453 5.110565 13.03125 5.110565c4.510315 0 8.277466 -1.4986725 11.301453 -4.496002l0 0c0.025634766 3.7951813 -0.14093018 6.285782 -0.49975586 7.4717712c-0.61499023 1.9407196 -1.7938232 3.45018 -3.536499 4.528351c-1.7426147 1.078186 -4.215576 1.6172638 -7.4189453 1.6172638c-2.9727173 0 -5.317566 -0.53907776 -7.034607 -1.6172638c-1.281311 -0.79785156 -2.0629272 -2.0700989 -2.3448486 -3.8167572l-6.727051 -0.8409729l0 0c-0.10247803 3.7089386 1.345398 6.483444 4.34375 8.323547c2.998352 1.8472748 6.932068 2.7709198 11.8012085 2.7709198c4.100281 0 7.5513306 -0.6469116 10.35321 -1.9407349c2.8104248 -1.293808 4.8605957 -3.058426 6.1504517 -5.2938538c1.2984619 -2.2282257 1.9476318 -6.0162354 1.9476318 -11.363998l0 -29.693054l-6.3810425 0l0 4.140213c-3.1265259 -3.2776642 -7.098694 -4.916504 -11.916504 -4.916504z" fill-rule="evenodd"/></g></svg>